<?xml version="1.0" encoding="UTF-8"?>
<svg id="Ebene_1" data-name="Ebene 1" xmlns="http://www.w3.org/2000/svg" viewBox="0 0 938 258">
  <defs>
    <style>
      .cls-1 {
        fill: #36a53c;
      }

      .cls-2 {
        fill: #fab816;
      }

      .cls-3 {
        fill: #be4b66;
      }

      .cls-4 {
        fill: #e6792f;
      }

      .cls-5 {
        fill: #02e3d8;
      }

      .cls-6 {
        fill: #d9d9d9;
      }

      .cls-7 {
        fill: #e40929;
      }

      .cls-8 {
        fill: #2091c0;
      }
    </style>
  </defs>
  <rect class="cls-5" x="78" y="196" width="103" height="2"/>
  <rect class="cls-5" x="177" y="187" width="20" height="2"/>
  <rect class="cls-5" x="194" y="179" width="15" height="2"/>
  <rect class="cls-5" x="184" y="171" width="31" height="2"/>
  <rect class="cls-5" x="148" y="179" width="12" height="2"/>
  <rect class="cls-5" x="187" y="163" width="12" height="2"/>
  <rect class="cls-5" x="168" y="155" width="19" height="2"/>
  <rect class="cls-5" x="143" y="147" width="29" height="2"/>
  <rect class="cls-5" x="211" y="163" width="9" height="2"/>
  <rect class="cls-5" x="215" y="155" width="7" height="2"/>
  <rect class="cls-5" x="212" y="147" width="8" height="2"/>
  <rect class="cls-5" x="203" y="155" width="5" height="2"/>
  <rect class="cls-5" x="199" y="147" width="6" height="2"/>
  <rect class="cls-5" x="207" y="138" width="6" height="2"/>
  <rect class="cls-5" x="206" y="130" width="11" height="2"/>
  <rect class="cls-5" x="185" y="130" width="10" height="2"/>
  <rect class="cls-5" x="103" y="130" width="18" height="2"/>
  <rect class="cls-5" x="78" y="130" width="11" height="2"/>
  <rect class="cls-5" x="61" y="130" width="6" height="2"/>
  <rect class="cls-5" x="47" y="130" width="5" height="2"/>
  <rect class="cls-5" x="0" y="130" width="9" height="2"/>
  <rect class="cls-5" x="85" y="122" width="18" height="2"/>
  <rect class="cls-5" x="59" y="122" width="7" height="2"/>
  <rect class="cls-5" x="43" y="122" width="5" height="2"/>
  <rect class="cls-5" x="45" y="114" width="5" height="2"/>
  <rect class="cls-5" x="51" y="106" width="17" height="2"/>
  <rect class="cls-5" x="65" y="114" width="16" height="2"/>
  <rect class="cls-5" x="33" y="114" width="5" height="2"/>
  <rect class="cls-5" x="39" y="106" width="5" height="2"/>
  <rect class="cls-5" x="0" y="114" width="8" height="2"/>
  <rect class="cls-5" x="0" y="122" width="8" height="2"/>
  <rect class="cls-5" x="223" y="122" width="6" height="2"/>
  <rect class="cls-5" x="221" y="106" width="6" height="2"/>
  <rect class="cls-5" x="211" y="97" width="9" height="2"/>
  <rect class="cls-5" x="189" y="89" width="30" height="2"/>
  <rect class="cls-5" x="189" y="81" width="38" height="2"/>
  <rect class="cls-5" x="177" y="97" width="11" height="2"/>
  <rect class="cls-5" x="169" y="81" width="5" height="2"/>
  <rect class="cls-5" x="169" y="89" width="6" height="2"/>
  <rect class="cls-5" x="158" y="73" width="6" height="2"/>
  <rect class="cls-5" x="196" y="64" width="10" height="2"/>
  <rect class="cls-5" x="211" y="56" width="20" height="2"/>
  <rect class="cls-5" x="124" y="64" width="11" height="2"/>
  <rect class="cls-5" x="16" y="64" width="9" height="2"/>
  <rect class="cls-5" x="23" y="56" width="8" height="2"/>
  <rect class="cls-5" x="26" y="48" width="8" height="2"/>
  <rect class="cls-5" x="31" y="49" width="8" height="1"/>
  <rect class="cls-5" x="28" y="57" width="8" height="1"/>
  <rect class="cls-5" x="19" y="65" width="8" height="1"/>
  <rect class="cls-5" x="35" y="41" width="8" height="1"/>
  <rect class="cls-5" x="40" y="33" width="9" height="1"/>
  <rect class="cls-5" x="46" y="25" width="11" height="1"/>
  <rect class="cls-5" x="57" y="17" width="16" height="1"/>
  <rect class="cls-5" x="70" y="9" width="21" height="1"/>
  <rect class="cls-5" x="28" y="40" width="9" height="2"/>
  <rect class="cls-5" x="32" y="32" width="9" height="2"/>
  <rect class="cls-5" x="95" y="32" width="14" height="2"/>
  <rect class="cls-5" x="80" y="40" width="22" height="2"/>
  <rect class="cls-5" x="136" y="32" width="15" height="2"/>
  <rect class="cls-5" x="151" y="24" width="14" height="2"/>
  <rect class="cls-5" x="189" y="24" width="12" height="2"/>
  <rect class="cls-5" x="164" y="16" width="24" height="2"/>
  <rect class="cls-5" x="112" y="16" width="16" height="2"/>
  <rect class="cls-5" x="46" y="16" width="13" height="2"/>
  <rect class="cls-5" x="54" y="8" width="18" height="2"/>
  <rect class="cls-5" x="97" y="8" width="14" height="2"/>
  <rect class="cls-5" x="66" y="24" width="10" height="2"/>
  <rect class="cls-5" x="67" width="34" height="2"/>
  <rect class="cls-5" x="122" y="24" width="19" height="2"/>
  <rect class="cls-5" x="171" y="32" width="45" height="2"/>
  <rect class="cls-5" x="38" y="24" width="9" height="2"/>
  <rect class="cls-5" x="161" y="81" width="6" height="2"/>
  <rect class="cls-5" x="84" y="81" width="6" height="2"/>
  <rect class="cls-5" x="74" y="73" width="6" height="2"/>
  <rect class="cls-5" x="84" y="71" width="36" height="4"/>
  <rect class="cls-5" x="77" y="63" width="36" height="4"/>
  <rect class="cls-5" x="133" y="71" width="27" height="4"/>
  <rect class="cls-5" x="140" y="63" width="19" height="4"/>
  <rect class="cls-5" x="140" y="55" width="19" height="4"/>
  <rect class="cls-5" x="64" y="55" width="49" height="4"/>
  <rect class="cls-5" x="132" y="47" width="23" height="4"/>
  <rect class="cls-5" x="95" y="39" width="132" height="4"/>
  <rect class="cls-5" x="69" y="47" width="51" height="4"/>
  <rect class="cls-5" x="162" y="63" width="23" height="4"/>
  <rect class="cls-5" x="211" y="63" width="21" height="4"/>
  <rect class="cls-5" x="211" y="55" width="21" height="4"/>
  <rect class="cls-5" x="205" y="47" width="25" height="4"/>
  <rect class="cls-5" x="162" y="55" width="23" height="4"/>
  <rect class="cls-5" x="159" y="47" width="32" height="4"/>
  <rect class="cls-5" x="162" y="71" width="29" height="4"/>
  <rect class="cls-5" x="205" y="71" width="25" height="4"/>
  <rect class="cls-5" x="97" y="81" width="59" height="2"/>
  <rect class="cls-5" x="117" y="73" width="7" height="2"/>
  <rect class="cls-5" x="117" y="47" width="7" height="2"/>
  <rect class="cls-5" x="188" y="73" width="7" height="2"/>
  <rect class="cls-5" x="188" y="47" width="7" height="2"/>
  <rect class="cls-5" x="131" y="73" width="6" height="2"/>
  <rect class="cls-5" x="131" y="47" width="6" height="2"/>
  <rect class="cls-5" x="202" y="73" width="6" height="2"/>
  <rect class="cls-5" x="202" y="47" width="6" height="2"/>
  <rect class="cls-5" x="140" y="89" width="10" height="2"/>
  <rect class="cls-5" x="70" y="89" width="6" height="2"/>
  <rect class="cls-5" x="5" y="81" width="9" height="2"/>
  <rect class="cls-5" x="9" y="73" width="9" height="2"/>
  <rect class="cls-5" x="3" y="89" width="8" height="2"/>
  <rect class="cls-5" x="128" y="97" width="10" height="2"/>
  <rect class="cls-5" x="98" y="89" width="10" height="2"/>
  <rect class="cls-5" x="87" y="97" width="13" height="2"/>
  <rect class="cls-5" x="183" y="106" width="5" height="2"/>
  <rect class="cls-5" x="220" y="114" width="10" height="2"/>
  <rect class="cls-5" x="196" y="122" width="12" height="2"/>
  <rect class="cls-5" x="118" y="179" width="14" height="2"/>
  <rect class="cls-5" x="150" y="163" width="12" height="2"/>
  <rect class="cls-5" x="126" y="155" width="36" height="2"/>
  <rect class="cls-5" x="84" y="147" width="33" height="2"/>
  <rect class="cls-5" x="83" y="163" width="8" height="2"/>
  <rect class="cls-5" x="72" y="155" width="7" height="2"/>
  <rect class="cls-5" x="61" y="147" width="7" height="2"/>
  <rect class="cls-5" x="52" y="138" width="7" height="2"/>
  <rect class="cls-5" x="70" y="138" width="8" height="2"/>
  <rect class="cls-5" x="113" y="138" width="72" height="2"/>
  <rect class="cls-5" x="100" y="155" width="9" height="2"/>
  <rect class="cls-5" x="22" y="163" width="7" height="2"/>
  <rect class="cls-5" x="11" y="155" width="7" height="2"/>
  <rect class="cls-5" x="5" y="147" width="7" height="2"/>
  <rect class="cls-5" x="1" y="138" width="8" height="2"/>
  <rect class="cls-5" x="0" y="106" width="9" height="2"/>
  <rect class="cls-5" x="1" y="97" width="9" height="2"/>
  <rect class="cls-5" x="98" y="171" width="8" height="2"/>
  <rect class="cls-5" x="40" y="179" width="18" height="2"/>
  <rect class="cls-5" x="31" y="171" width="13" height="2"/>
  <rect class="cls-5" x="51" y="187" width="31" height="2"/>
  <rect class="cls-1" x="270" y="33" width="142" height="6"/>
  <rect class="cls-1" x="616" y="33" width="142" height="6"/>
  <rect class="cls-1" x="450" y="33" width="142" height="6"/>
  <rect class="cls-1" x="796" y="33" width="142" height="6"/>
  <rect class="cls-7" x="270" y="110" width="142" height="6"/>
  <rect class="cls-7" x="616" y="110" width="142" height="6"/>
  <rect class="cls-7" x="450" y="110" width="44" height="6"/>
  <rect class="cls-7" x="796" y="110" width="44" height="6"/>
  <rect class="cls-3" x="270" y="121" width="142" height="6"/>
  <rect class="cls-3" x="616" y="121" width="142" height="6"/>
  <rect class="cls-3" x="450" y="121" width="44" height="6"/>
  <rect class="cls-3" x="796" y="121" width="44" height="6"/>
  <rect class="cls-1" x="270" y="44" width="156" height="6"/>
  <rect class="cls-1" x="616" y="44" width="156" height="6"/>
  <rect class="cls-1" x="450" y="44" width="142" height="6"/>
  <rect class="cls-1" x="796" y="44" width="142" height="6"/>
  <rect class="cls-7" x="270" y="99" width="156" height="6"/>
  <rect class="cls-7" x="616" y="99" width="156" height="6"/>
  <rect class="cls-7" x="450" y="99" width="127" height="6"/>
  <rect class="cls-7" x="796" y="99" width="127" height="6"/>
  <rect class="cls-2" x="270" y="55" width="156" height="6"/>
  <rect class="cls-2" x="616" y="55" width="156" height="6"/>
  <rect class="cls-2" x="450" y="55" width="142" height="6"/>
  <rect class="cls-2" x="796" y="55" width="142" height="6"/>
  <rect class="cls-2" x="270" y="66" width="44" height="6"/>
  <rect class="cls-2" x="616" y="66" width="44" height="6"/>
  <rect class="cls-2" x="450" y="66" width="44" height="6"/>
  <rect class="cls-2" x="796" y="66" width="44" height="6"/>
  <rect class="cls-3" x="270" y="132" width="44" height="6"/>
  <rect class="cls-3" x="616" y="132" width="44" height="6"/>
  <rect class="cls-3" x="450" y="132" width="142" height="6"/>
  <rect class="cls-3" x="796" y="132" width="142" height="6"/>
  <rect class="cls-4" x="270" y="77" width="44" height="6"/>
  <rect class="cls-4" x="616" y="77" width="44" height="6"/>
  <rect class="cls-4" x="450" y="77" width="127" height="6"/>
  <rect class="cls-4" x="796" y="77" width="127" height="6"/>
  <rect class="cls-8" x="270" y="143" width="44" height="6"/>
  <rect class="cls-8" x="616" y="143" width="44" height="6"/>
  <rect class="cls-8" x="450" y="143" width="142" height="6"/>
  <rect class="cls-8" x="796" y="143" width="142" height="6"/>
  <rect class="cls-4" x="270" y="88" width="44" height="6"/>
  <rect class="cls-4" x="616" y="88" width="44" height="6"/>
  <rect class="cls-4" x="450" y="88" width="127" height="6"/>
  <rect class="cls-4" x="796" y="88" width="127" height="6"/>
  <rect class="cls-8" x="270" y="154" width="44" height="6"/>
  <rect class="cls-8" x="616" y="154" width="44" height="6"/>
  <rect class="cls-8" x="450" y="154" width="142" height="6"/>
  <rect class="cls-8" x="796" y="154" width="142" height="6"/>
  <rect class="cls-2" x="382" y="66" width="44" height="6"/>
  <rect class="cls-2" x="728" y="66" width="44" height="6"/>
  <rect class="cls-4" x="382" y="77" width="44" height="6"/>
  <rect class="cls-4" x="728" y="77" width="44" height="6"/>
  <rect class="cls-4" x="379" y="88" width="47" height="6"/>
  <rect class="cls-4" x="725" y="88" width="47" height="6"/>
  <rect class="cls-6" x="718" y="140" width="32" height="2"/>
  <rect class="cls-6" x="700" y="144" width="27" height="2"/>
  <rect class="cls-6" x="688" y="148" width="13" height="2"/>
  <rect class="cls-6" x="679" y="152" width="11" height="2"/>
  <rect class="cls-6" x="673" y="156" width="10" height="2"/>
  <rect class="cls-6" x="739" y="144" width="25" height="2"/>
  <rect class="cls-6" x="762" y="148" width="8" height="2"/>
  <rect class="cls-6" x="770" y="156" width="8" height="2"/>
  <rect class="cls-6" x="767" y="152" width="8" height="2"/>
  <rect class="cls-6" x="725" y="152" width="8" height="2"/>
  <rect class="cls-6" x="723" y="156" width="8" height="2"/>
  <rect class="cls-6" x="721" y="160" width="8" height="2"/>
  <rect class="cls-6" x="718" y="164" width="8" height="2"/>
  <rect class="cls-6" x="715" y="168" width="8" height="2"/>
  <rect class="cls-6" x="713" y="172" width="8" height="2"/>
  <rect class="cls-6" x="711" y="176" width="8" height="2"/>
  <rect class="cls-6" x="709" y="180" width="8" height="2"/>
  <rect class="cls-6" x="707" y="184" width="8" height="2"/>
  <rect class="cls-6" x="705" y="188" width="8" height="2"/>
  <rect class="cls-6" x="703" y="192" width="8" height="2"/>
  <rect class="cls-6" x="701" y="196" width="8" height="2"/>
  <rect class="cls-6" x="699" y="200" width="8" height="2"/>
  <rect class="cls-6" x="697" y="204" width="8" height="2"/>
  <rect class="cls-6" x="692" y="208" width="13" height="2"/>
  <rect class="cls-6" x="683" y="212" width="10" height="2"/>
  <rect class="cls-6" x="678" y="216" width="10" height="2"/>
  <rect class="cls-6" x="672" y="220" width="10" height="2"/>
  <rect class="cls-6" x="669" y="224" width="9" height="2"/>
  <rect class="cls-6" x="739" y="224" width="10" height="2"/>
  <rect class="cls-6" x="744" y="220" width="9" height="2"/>
  <rect class="cls-6" x="748" y="216" width="9" height="2"/>
  <rect class="cls-6" x="752" y="212" width="9" height="2"/>
  <rect class="cls-6" x="756" y="208" width="9" height="2"/>
  <rect class="cls-6" x="759" y="204" width="9" height="2"/>
  <rect class="cls-6" x="762" y="200" width="9" height="2"/>
  <rect class="cls-6" x="775" y="200" width="9" height="2"/>
  <rect class="cls-6" x="786" y="200" width="10" height="2"/>
  <rect class="cls-6" x="793" y="204" width="6" height="2"/>
  <rect class="cls-6" x="795" y="208" width="10" height="2"/>
  <rect class="cls-6" x="803" y="204" width="4" height="2"/>
  <rect class="cls-6" x="811" y="200" width="6" height="2"/>
  <rect class="cls-6" x="773" y="204" width="14" height="2"/>
  <rect class="cls-6" x="771" y="208" width="11" height="2"/>
  <rect class="cls-6" x="768" y="212" width="10" height="2"/>
  <rect class="cls-6" x="766" y="216" width="9" height="2"/>
  <rect class="cls-6" x="814" y="200" width="8" height="2"/>
  <rect class="cls-6" x="842" y="200" width="8" height="2"/>
  <rect class="cls-6" x="840" y="208" width="8" height="2"/>
  <rect class="cls-6" x="840" y="212" width="7" height="2"/>
  <rect class="cls-6" x="840" y="216" width="6" height="2"/>
  <rect class="cls-6" x="840" y="220" width="12" height="2"/>
  <rect class="cls-6" x="841" y="223" width="6" height="2"/>
  <rect class="cls-6" x="848" y="216" width="6" height="2"/>
  <rect class="cls-6" x="850" y="212" width="8" height="2"/>
  <rect class="cls-6" x="854" y="208" width="8" height="2"/>
  <rect class="cls-6" x="856" y="204" width="8" height="2"/>
  <rect class="cls-6" x="868" y="204" width="8" height="2"/>
  <rect class="cls-6" x="860" y="200" width="11" height="2"/>
  <rect class="cls-6" x="864" y="196" width="10" height="2"/>
  <rect class="cls-6" x="892" y="196" width="8" height="2"/>
  <rect class="cls-6" x="886" y="200" width="19" height="2"/>
  <rect class="cls-6" x="881" y="204" width="9" height="2"/>
  <rect class="cls-6" x="879" y="212" width="8" height="2"/>
  <rect class="cls-6" x="880" y="216" width="9" height="2"/>
  <rect class="cls-6" x="883" y="220" width="19" height="2"/>
  <rect class="cls-6" x="887" y="223" width="9" height="2"/>
  <rect class="cls-6" x="899" y="216" width="9" height="2"/>
  <rect class="cls-6" x="905" y="212" width="9" height="2"/>
  <rect class="cls-6" x="912" y="208" width="8" height="2"/>
  <rect class="cls-6" x="918" y="204" width="7" height="2"/>
  <rect class="cls-6" x="896" y="204" width="7" height="2"/>
  <rect class="cls-6" x="871" y="208" width="28" height="2"/>
  <rect class="cls-6" x="844" y="196" width="8" height="2"/>
  <rect class="cls-6" x="807" y="204" width="12" height="2"/>
  <rect class="cls-6" x="809" y="208" width="8" height="2"/>
  <rect class="cls-6" x="807" y="212" width="8" height="2"/>
  <rect class="cls-6" x="808" y="216" width="8" height="2"/>
  <rect class="cls-6" x="810" y="220" width="8" height="2"/>
  <rect class="cls-6" x="819" y="220" width="6" height="2"/>
  <rect class="cls-6" x="823" y="216" width="6" height="2"/>
  <rect class="cls-6" x="828" y="212" width="6" height="2"/>
  <rect class="cls-6" x="832" y="208" width="6" height="2"/>
  <rect class="cls-6" x="837" y="204" width="12" height="2"/>
  <rect class="cls-6" x="813" y="224" width="9" height="2"/>
  <rect class="cls-6" x="817" y="196" width="8" height="2"/>
  <rect class="cls-6" x="823" y="184" width="8" height="2"/>
  <rect class="cls-6" x="824" y="188" width="4" height="2"/>
  <rect class="cls-6" x="826" y="180" width="4" height="2"/>
  <rect class="cls-6" x="764" y="220" width="9" height="2"/>
  <rect class="cls-6" x="762" y="224" width="8" height="2"/>
  <rect class="cls-6" x="666" y="228" width="8" height="2"/>
  <rect class="cls-6" x="734" y="228" width="10" height="2"/>
  <rect class="cls-6" x="664" y="232" width="8" height="2"/>
  <rect class="cls-6" x="728" y="232" width="11" height="2"/>
  <rect class="cls-6" x="662" y="236" width="8" height="2"/>
  <rect class="cls-6" x="722" y="236" width="11" height="2"/>
  <rect class="cls-6" x="662" y="240" width="8" height="2"/>
  <rect class="cls-6" x="716" y="240" width="11" height="2"/>
  <rect class="cls-6" x="663" y="244" width="7" height="2"/>
  <rect class="cls-6" x="708" y="244" width="12" height="2"/>
  <rect class="cls-6" x="665" y="248" width="8" height="2"/>
  <rect class="cls-6" x="700" y="248" width="11" height="2"/>
  <rect class="cls-6" x="669" y="252" width="31" height="2"/>
  <rect class="cls-6" x="678" y="256" width="11" height="2"/>
  <rect class="cls-6" x="694" y="212" width="8" height="2"/>
  <rect class="cls-6" x="692" y="216" width="8" height="2"/>
  <rect class="cls-6" x="691" y="220" width="8" height="2"/>
  <rect class="cls-6" x="706" y="204" width="18" height="2"/>
  <rect class="cls-6" x="669" y="160" width="9" height="2"/>
  <rect class="cls-6" x="665" y="164" width="9" height="2"/>
  <rect class="cls-6" x="661" y="168" width="9" height="2"/>
  <rect class="cls-6" x="659" y="172" width="8" height="2"/>
  <rect class="cls-6" x="658" y="176" width="7" height="2"/>
  <rect class="cls-6" x="772" y="160" width="8" height="2"/>
  <rect class="cls-6" x="773" y="164" width="9" height="2"/>
  <rect class="cls-6" x="774" y="168" width="9" height="2"/>
  <rect class="cls-6" x="774" y="172" width="9" height="2"/>
  <rect class="cls-6" x="774" y="176" width="9" height="2"/>
  <rect class="cls-6" x="773" y="180" width="9" height="2"/>
  <rect class="cls-6" x="772" y="184" width="9" height="2"/>
  <rect class="cls-6" x="770" y="188" width="9" height="2"/>
  <rect class="cls-6" x="768" y="192" width="9" height="2"/>
  <rect class="cls-6" x="765" y="196" width="9" height="2"/>
  <rect class="cls-6" x="777" y="196" width="6" height="2"/>
  <rect class="cls-6" x="789" y="196" width="5" height="2"/>
  <rect class="cls-6" x="789" y="196" width="5" height="2"/>
</svg>