<?xml version="1.0" encoding="UTF-8"?>
<svg id="Ebene_1" data-name="Ebene 1" xmlns="http://www.w3.org/2000/svg" viewBox="0 0 81 74">
  <defs>
    <style>
      .cls-1 {
        fill: #70b959;
      }
    </style>
  </defs>
  <rect class="cls-1" x="28" width="19" height="2"/>
  <rect class="cls-1" x="20" y="4" width="27" height="2"/>
  <rect class="cls-1" x="14" y="8" width="15" height="2"/>
  <rect class="cls-1" x="9" y="12" width="12" height="2"/>
  <rect class="cls-1" x="7" y="16" width="10" height="2"/>
  <rect class="cls-1" x="4" y="20" width="11" height="2"/>
  <rect class="cls-1" x="2" y="24" width="10" height="2"/>
  <rect class="cls-1" x="1" y="28" width="10" height="2"/>
  <rect class="cls-1" x="0" y="32" width="10" height="2"/>
  <rect class="cls-1" x="0" y="36" width="10" height="2"/>
  <rect class="cls-1" x="34" width="19" height="2"/>
  <rect class="cls-1" x="34" y="4" width="27" height="2"/>
  <rect class="cls-1" x="52" y="8" width="15" height="2"/>
  <rect class="cls-1" x="60" y="12" width="12" height="2"/>
  <rect class="cls-1" x="64" y="16" width="10" height="2"/>
  <rect class="cls-1" x="28" y="16" width="9" height="2"/>
  <rect class="cls-1" x="27" y="20" width="12" height="2"/>
  <rect class="cls-1" x="27" y="40" width="12" height="2"/>
  <rect class="cls-1" x="27" y="44" width="12" height="2"/>
  <rect class="cls-1" x="27" y="48" width="27" height="2"/>
  <rect class="cls-1" x="29" y="52" width="27" height="2"/>
  <rect class="cls-1" x="33" y="56" width="21" height="2"/>
  <rect class="cls-1" x="27" y="24" width="12" height="2"/>
  <rect class="cls-1" x="27" y="36" width="27" height="2"/>
  <rect class="cls-1" x="27" y="28" width="27" height="2"/>
  <rect class="cls-1" x="27" y="32" width="29" height="2"/>
  <rect class="cls-1" x="66" y="20" width="11" height="2"/>
  <rect class="cls-1" x="69" y="24" width="10" height="2"/>
  <rect class="cls-1" x="70" y="28" width="10" height="2"/>
  <rect class="cls-1" x="71" y="32" width="10" height="2"/>
  <rect class="cls-1" x="71" y="36" width="10" height="2"/>
  <rect class="cls-1" x="28" y="72" width="19" height="2"/>
  <rect class="cls-1" x="20" y="68" width="27" height="2"/>
  <rect class="cls-1" x="14" y="64" width="15" height="2"/>
  <rect class="cls-1" x="9" y="60" width="12" height="2"/>
  <rect class="cls-1" x="7" y="56" width="10" height="2"/>
  <rect class="cls-1" x="4" y="52" width="11" height="2"/>
  <rect class="cls-1" x="2" y="48" width="10" height="2"/>
  <rect class="cls-1" x="1" y="44" width="10" height="2"/>
  <rect class="cls-1" x="0" y="40" width="10" height="2"/>
  <rect class="cls-1" x="34" y="72" width="19" height="2"/>
  <rect class="cls-1" x="34" y="68" width="27" height="2"/>
  <rect class="cls-1" x="52" y="64" width="15" height="2"/>
  <rect class="cls-1" x="60" y="60" width="12" height="2"/>
  <rect class="cls-1" x="64" y="56" width="10" height="2"/>
  <rect class="cls-1" x="66" y="52" width="11" height="2"/>
  <rect class="cls-1" x="69" y="48" width="10" height="2"/>
  <rect class="cls-1" x="70" y="44" width="10" height="2"/>
  <rect class="cls-1" x="71" y="40" width="10" height="2"/>
</svg>